<?xml version="1.0" encoding="UTF-8" standalone="no"?>
<!-- Generator: Adobe Illustrator 16.0.0, SVG Export Plug-In . SVG Version: 6.00 Build 0)  -->

<svg
   xmlns:dc="http://purl.org/dc/elements/1.1/"
   xmlns:cc="http://creativecommons.org/ns#"
   xmlns:rdf="http://www.w3.org/1999/02/22-rdf-syntax-ns#"
   xmlns:svg="http://www.w3.org/2000/svg"
   xmlns="http://www.w3.org/2000/svg"
   xmlns:sodipodi="http://sodipodi.sourceforge.net/DTD/sodipodi-0.dtd"
   xmlns:inkscape="http://www.inkscape.org/namespaces/inkscape"
   version="1.1"
   id="Layer_1"
   x="0px"
   y="0px"
   width="883.49628"
   height="356.35275"
   viewBox="0 0 883.49628 356.35275"
   enable-background="new 0 0 266 100"
   xml:space="preserve"
   sodipodi:docname="facebook-logo.svg"
   inkscape:version="0.92.2 (5c3e80d, 2017-08-06)"><metadata
     id="metadata31"><rdf:RDF><cc:Work
         rdf:about=""><dc:format>image/svg+xml</dc:format><dc:type
           rdf:resource="http://purl.org/dc/dcmitype/StillImage" /><dc:title></dc:title></cc:Work></rdf:RDF></metadata><defs
     id="defs29" /><sodipodi:namedview
     pagecolor="#ffffff"
     bordercolor="#666666"
     borderopacity="1"
     objecttolerance="10"
     gridtolerance="10"
     guidetolerance="10"
     inkscape:pageopacity="0"
     inkscape:pageshadow="2"
     inkscape:window-width="1600"
     inkscape:window-height="837"
     id="namedview27"
     showgrid="false"
     fit-margin-top="0"
     fit-margin-left="0"
     fit-margin-right="0"
     fit-margin-bottom="0"
     inkscape:zoom="0.42133994"
     inkscape:cx="614.03773"
     inkscape:cy="449.0723"
     inkscape:window-x="-8"
     inkscape:window-y="-8"
     inkscape:window-maximized="1"
     inkscape:current-layer="g6" /><g
     id="g24"
     transform="translate(253.19486,44.291186)"
     inkscape:export-xdpi="18.045181"
     inkscape:export-ydpi="18.045181"><g
       id="g4"><rect
         width="265.99899"
         height="100"
         id="rect2"
         x="0"
         y="0"
         style="fill:#3b5998" /></g><g
       id="g22"><path
         d="m 143.88,42.839 c -3.287,-0.351 -6.131,0.645 -8.535,3.536 v -0.899 0 -15.606 -0.172 -1.054 l -8.705,1.054 v 41.04 h 8.705 v -2.436 c 1.174,0.838 2.316,1.847 3.652,2.325 5.072,1.818 11.76,0.336 14.1,-6.448 1.502,-4.352 1.463,-8.814 0.332,-13.215 -1.254,-4.889 -4.508,-7.588 -9.549,-8.125 z m 1.301,17.774 c -0.383,2.706 -2.537,4.124 -5.094,3.925 -0.639,-0.05 -1.217,-0.181 -1.736,-0.384 -2.061,-1.183 -2.684,-3.164 -2.865,-4.408 -0.002,10e-4 -0.004,10e-4 -0.004,0.002 -0.141,-1.925 -0.293,-5.95 0.646,-7.852 0.797,-1.458 2.188,-2.252 4.033,-2.313 2.621,-0.086 4.604,1.214 4.994,3.874 0.346,2.344 0.362,4.814 0.026,7.156 z"
         id="path6"
         inkscape:connector-curvature="0"
         style="clip-rule:evenodd;fill:#ffffff;fill-rule:evenodd" /><path
         d="m 174.731,43.346 c -3.025,-0.809 -6.08,-0.799 -9.098,0.005 -4.52,1.203 -7.549,4.063 -8.525,8.612 -0.533,2.482 -0.639,5.121 -0.498,7.666 0.322,5.822 3.922,9.969 9.51,11.257 0.078,0.019 0.16,0.033 0.24,0.051 h -0.002 c 0,0 0.016,0.003 0.041,0.008 0.215,0.043 0.43,0.083 0.646,0.116 0.072,0.006 0.146,0.012 0.217,0.019 0.002,0 0.004,0 0.006,0 0.271,0.05 0.596,0.087 0.938,0.114 1.094,0.116 2.486,0.199 3.648,0.062 0.008,0 0.012,-0.002 0.018,-0.003 0.059,-0.001 0.119,-0.001 0.178,-0.005 5.77,-0.3 10.148,-3.938 11.426,-9.519 0.701,-3.061 0.701,-6.137 0.023,-9.2 -1.061,-4.808 -3.977,-7.901 -8.768,-9.183 z m 0.368,16.826 c -0.029,0.181 -0.059,0.36 -0.1,0.538 -0.578,2.568 -2.443,3.958 -4.93,3.842 -2.674,-0.122 -4.508,-1.685 -4.766,-4.357 -0.186,-1.952 -0.201,-3.945 -0.039,-5.898 0.254,-3.083 2.182,-4.769 5.074,-4.712 2.377,0.046 4.07,1.393 4.674,3.678 0.548,2.299 0.141,6.386 0.087,6.909 z"
         id="path8"
         inkscape:connector-curvature="0"
         style="clip-rule:evenodd;fill:#ffffff;fill-rule:evenodd" /><path
         d="M 44.054,43.202 H 37.841 V 39.07 c 0.454,-3.906 6.906,-3.164 6.906,-3.164 l 0.002,-0.267 -0.002,-0.03 v -6.416 h -10e-4 v -0.001 h -0.005 c -0.222,-0.053 -12.834,-3.046 -15.339,6.553 0,0.002 0,0.005 -0.003,0.007 -0.005,0.021 -0.011,0.042 -0.016,0.063 -0.394,1.2 -0.367,6.696 -0.362,7.387 h -5.385 v 7.349 h 5.719 v 19.99 h 8.328 v -19.99 h 6.37 l 0.717,-7.349 z"
         id="path10"
         inkscape:connector-curvature="0"
         style="clip-rule:evenodd;fill:#ffffff;fill-rule:evenodd" /><path
         d="m 63.915,46.718 c -0.102,-0.113 -0.203,-0.222 -0.29,-0.313 V 46.404 C 63.611,46.39 63.6,46.378 63.586,46.364 63.465,46.238 63.38,46.154 63.38,46.154 v 0 c -1.961,-1.994 -2.701,-2.49 -4.237,-2.943 -5.907,-1.74 -11.658,1.353 -13.479,7.296 -1.119,3.652 -1.135,7.411 -0.479,11.109 1.417,8.009 7.374,10.691 13.723,9.369 1.948,-0.406 3.396,-1.619 4.739,-3.308 0,0 0.121,-0.148 0.269,-0.436 v 3.524 H 72.04 V 43.233 h -8.124 v 3.485 z M 63.2,60.573 c -0.272,2.546 -2.332,4.075 -4.767,3.979 -2.495,-0.097 -4.146,-1.433 -4.685,-3.827 -0.646,-3.406 0.11,-7.453 0.174,-7.781 0.652,-2.286 2.315,-3.417 4.755,-3.36 2.396,0.054 4.243,1.472 4.513,3.954 0.253,2.322 0.259,4.712 0.01,7.035 z"
         id="path12"
         inkscape:connector-curvature="0"
         style="clip-rule:evenodd;fill:#ffffff;fill-rule:evenodd" /><path
         d="m 96.852,68.792 c -0.377,-1.379 -0.806,-2.739 -1.221,-4.053 l -0.392,-1.461 c 0,0 -10.182,4.888 -11.77,-4.4 -0.147,-1.533 -0.102,-3.115 0.109,-4.628 0.396,-2.855 2.138,-4.384 4.909,-4.646 0.936,-0.089 1.91,-0.044 2.837,0.113 1.262,0.213 2.494,0.593 3.875,0.934 0.48,-1.469 0.971,-2.922 1.428,-4.385 0.072,-0.229 0.132,-0.427 0.179,-0.604 h 0.001 l 0.229,-0.879 c -0.057,-0.117 -0.196,-0.238 -0.382,-0.356 0,0 0,0 0,10e-4 -0.234,-0.196 -0.633,-0.359 -1.256,-0.587 -0.249,-0.091 -0.499,-0.172 -0.749,-0.25 -0.224,-0.071 -0.37,-0.113 -0.37,-0.113 h 0.001 c -2.675,-0.765 -5.421,-0.824 -8.211,-0.53 -5.88,0.621 -9.871,4.091 -10.978,9.819 -0.581,3.014 -0.554,6.065 0.113,9.088 0.999,4.527 3.743,7.452 8.204,8.76 2.911,0.853 5.894,0.896 8.862,0.433 1.248,-0.195 3.038,-0.842 4.323,-1.303 l 0.489,-0.172 -0.231,-0.783 z"
         id="path14"
         inkscape:connector-curvature="0"
         style="clip-rule:evenodd;fill:#ffffff;fill-rule:evenodd" /><path
         d="m 123.657,58.021 c -0.039,-1.906 -0.013,-3.821 -0.283,-5.694 -0.743,-5.136 -3.87,-8.386 -8.927,-9.235 -1.93,-0.323 -3.971,-0.28 -5.932,-0.093 -5.367,0.512 -9.441,3.855 -10.276,8.886 -0.507,3.052 -0.572,6.291 -0.162,9.356 0.619,4.611 2.864,7.548 6.748,8.958 10e-4,0 10e-4,0 0.002,0 0.017,0.001 0.034,0.004 0.051,0.006 -0.002,0.002 -0.001,0.002 -0.002,0.003 1.773,0.53 10.45,2.799 18.099,-1.044 l -0.307,-1.126 c -0.003,0.002 -0.008,0.002 -0.011,0.002 -0.354,-1.502 -0.78,-2.988 -1.181,-4.477 l -0.043,-0.146 c 0,0 -0.159,0.057 -0.441,0.147 -0.006,10e-4 -0.014,10e-4 -0.02,0.002 -0.334,0.087 -0.664,0.189 -0.992,0.299 -0.061,0.02 -0.121,0.039 -0.182,0.057 -1.158,0.326 -2.813,0.728 -4.561,0.953 -1.467,0.148 -2.949,0.154 -4.445,0.026 -2.429,-0.402 -4.288,-1.703 -4.199,-4.779 h 1.388 c 4.762,0 9.523,0 14.286,-10e-4 0.113,0 0.228,10e-4 0.341,-0.001 l -0.001,0.002 c 0,0 1.023,-0.013 1.066,-0.023 0,0 -0.001,-0.27 0,-0.303 z m -7.83,-3.754 h -9.406 c 0.049,-1.871 0.283,-3.61 1.946,-4.669 1.766,-1.122 3.717,-1.164 5.533,-0.158 1.836,1.014 1.98,2.846 1.927,4.827 z"
         id="path16"
         inkscape:connector-curvature="0"
         style="clip-rule:evenodd;fill:#ffffff;fill-rule:evenodd" /><polygon
         points="225.108,56.058 225.108,29.896 225.108,29.724 225.108,28.669 216.403,29.724 216.403,70.765 225.108,70.765 225.108,58.205 233.128,70.783 242.362,70.783 233.659,57.129 242.362,43.52 233.128,43.52 "
         id="polygon18"
         style="clip-rule:evenodd;fill:#ffffff;fill-rule:evenodd" /><path
         d="m 204.421,43.342 c -3.025,-0.81 -6.082,-0.8 -9.1,0.004 -4.518,1.204 -7.547,4.063 -8.523,8.611 -0.533,2.483 -0.639,5.121 -0.498,7.667 0.32,5.822 3.922,9.97 9.508,11.257 0.08,0.019 0.162,0.033 0.242,0.051 h -0.002 c 0,0 0.014,0.003 0.039,0.008 0.215,0.043 0.432,0.083 0.648,0.115 0.072,0.007 0.145,0.014 0.217,0.018 0.002,0.002 0.004,0.002 0.006,0.002 0.273,0.05 0.596,0.088 0.936,0.115 1.096,0.116 2.49,0.199 3.65,0.062 0.006,-0.002 0.01,-0.002 0.018,-0.004 0.061,-0.001 0.119,-0.001 0.176,-0.004 5.771,-0.301 10.15,-3.94 11.428,-9.519 0.701,-3.061 0.701,-6.138 0.025,-9.201 -1.065,-4.808 -3.979,-7.901 -8.77,-9.182 z m 0.367,16.825 c -0.029,0.182 -0.059,0.36 -0.1,0.539 -0.58,2.568 -2.443,3.956 -4.93,3.842 -2.674,-0.125 -4.508,-1.687 -4.766,-4.358 -0.186,-1.951 -0.203,-3.944 -0.041,-5.897 0.258,-3.084 2.184,-4.77 5.078,-4.713 2.373,0.046 4.068,1.393 4.672,3.678 0.546,2.298 0.142,6.387 0.087,6.909 z"
         id="path20"
         inkscape:connector-curvature="0"
         style="clip-rule:evenodd;fill:#ffffff;fill-rule:evenodd" /></g></g><path
     inkscape:connector-curvature="0"
     style="fill:none;stroke-width:1.25673056"
     d="M 549.20596,20.830525 H 883.49629 V 146.50358 H 549.20596 Z"
     id="path2" /><g
     transform="matrix(1.2567305,0,0,1.2567305,549.20596,20.830525)"
     style="fill:#3b5998"
     id="g6"><path
       inkscape:connector-curvature="0"
       d="m 140.021,49.597 c -1.784,0 -3.07,0.585 -4.374,1.181 v 13.486 c 1.249,0.119 1.965,0.119 3.15,0.119 4.282,0 4.869,-1.961 4.869,-4.699 v -6.441 c 0,-2.022 -0.671,-3.646 -3.645,-3.646 z m -28.438,-0.736 c -2.971,0 -3.649,1.631 -3.649,3.651 v 1.135 h 7.294 v -1.135 c 0,-2.02 -0.678,-3.651 -3.645,-3.651 z m -55.09,14.037 c 0,1.598 0.754,2.428 2.418,2.428 1.785,0 2.842,-0.582 4.145,-1.18 v -3.199 h -3.903 c -1.848,0 -2.66,0.344 -2.66,1.951 z M 167.684,49.597 c -2.976,0 -4.007,1.624 -4.007,3.646 v 7.379 c 0,2.027 1.031,3.656 4.007,3.656 2.968,0 4.007,-1.629 4.007,-3.656 v -7.379 c -0.001,-2.022 -1.04,-3.646 -4.007,-3.646 z M 41.909,71.172 H 33.161 V 49.998 H 28.79 v -7.296 h 4.372 V 38.32 c 0,-5.953 2.467,-9.492 9.479,-9.492 h 5.838 v 7.298 H 44.83 c -2.73,0 -2.91,1.02 -2.91,2.923 l -0.011,3.652 h 6.61 l -0.773,7.296 h -5.837 z m 29.897,0.055 H 64.515 L 64.2,69.383 c -3.329,1.844 -6.3,2.143 -8.26,2.143 -5.347,0 -8.193,-3.572 -8.193,-8.512 0,-5.828 3.321,-7.908 9.262,-7.908 h 6.047 v -1.26 c 0,-2.975 -0.341,-3.848 -4.916,-3.848 h -7.48 l 0.731,-7.296 h 8.176 c 10.038,0 12.239,3.171 12.239,11.203 z M 96.599,50.533 c -4.537,-0.778 -5.84,-0.949 -8.023,-0.949 -3.921,0 -5.106,0.865 -5.106,4.195 v 6.299 c 0,3.33 1.185,4.199 5.106,4.199 2.183,0 3.486,-0.174 8.023,-0.955 v 7.117 c -3.974,0.891 -6.563,1.125 -8.751,1.125 -9.392,0 -13.125,-4.939 -13.125,-12.074 v -5.111 c 0,-7.141 3.733,-12.089 13.125,-12.089 2.188,0 4.777,0.235 8.751,1.13 z m 27.376,8.957 h -16.042 v 0.588 c 0,3.33 1.186,4.199 5.106,4.199 3.524,0 5.675,-0.174 10.204,-0.955 v 7.117 c -4.368,0.891 -6.644,1.125 -10.929,1.125 -9.393,0 -13.128,-4.939 -13.128,-12.074 v -5.844 c 0,-6.243 2.771,-11.356 12.396,-11.356 9.625,0 12.393,5.054 12.393,11.356 z m 28.437,0.135 c 0,6.896 -1.971,11.926 -13.911,11.926 -4.312,0 -6.841,-0.379 -11.6,-1.111 V 31.02 l 8.745,-1.459 V 43.35 c 1.89,-0.702 4.336,-1.059 6.562,-1.059 8.746,0 10.203,3.921 10.203,10.222 v 7.112 z m 28.033,0.15 c 0,5.949 -2.456,11.719 -12.732,11.719 -10.281,0 -12.783,-5.77 -12.783,-11.719 v -5.744 c 0,-5.952 2.502,-11.723 12.783,-11.723 10.276,0 12.732,5.771 12.732,11.723 z m 28.014,0 c 0,5.949 -2.459,11.719 -12.733,11.719 -10.281,0 -12.783,-5.77 -12.783,-11.719 v -5.744 c 0,-5.952 2.502,-11.723 12.783,-11.723 10.274,0 12.733,5.771 12.733,11.723 z m 28.749,11.397 h -9.479 l -8.017,-13.383 v 13.383 h -8.748 V 31.019 l 8.748,-1.459 v 25.849 l 8.017,-12.707 h 9.479 l -8.752,13.867 z M 195.696,49.597 c -2.971,0 -4.002,1.624 -4.002,3.646 v 7.379 c 0,2.027 1.031,3.656 4.002,3.656 2.967,0 4.017,-1.629 4.017,-3.656 v -7.379 c 0,-2.022 -1.05,-3.646 -4.017,-3.646 z m 46.505,16.581 c 1.473,0 2.646,1.201 2.646,2.701 0,1.523 -1.174,2.711 -2.657,2.711 -1.476,0 -2.673,-1.188 -2.673,-2.711 0,-1.5 1.197,-2.701 2.673,-2.701 z m -0.011,0.42 c -1.187,0 -2.158,1.021 -2.158,2.281 0,1.283 0.972,2.291 2.169,2.291 1.198,0.012 2.155,-1.008 2.155,-2.279 0,-1.271 -0.957,-2.293 -2.155,-2.293 z m -0.503,3.853 h -0.48 v -3.014 c 0.252,-0.035 0.492,-0.07 0.852,-0.07 0.456,0 0.754,0.096 0.937,0.227 0.177,0.133 0.272,0.336 0.272,0.623 0,0.398 -0.262,0.637 -0.585,0.734 v 0.023 c 0.263,0.049 0.442,0.287 0.503,0.73 0.07,0.469 0.143,0.648 0.19,0.746 h -0.503 c -0.071,-0.098 -0.144,-0.373 -0.204,-0.77 -0.07,-0.383 -0.264,-0.527 -0.648,-0.527 h -0.333 v 1.298 z m 0,-1.668 h 0.348 c 0.394,0 0.729,-0.145 0.729,-0.518 0,-0.264 -0.19,-0.527 -0.729,-0.527 -0.157,0 -0.266,0.012 -0.348,0.023 z"
       id="path4"
       inkscape:export-xdpi="17.6779"
       inkscape:export-ydpi="17.6779" /><path
       inkscape:connector-curvature="0"
       style="fill:#485a96;stroke-width:0.52862138"
       d="m -303.71244,124.51124 c 4.2998,0 7.78607,-3.48679 7.78607,-7.78659 V -8.788583 c 0,-4.30139 -3.48679,-7.78659 -7.78607,-7.78659 h -125.51269 c -4.30139,0 -7.78659,3.48573 -7.78659,7.78659 V 116.72411 c 0,4.30034 3.4852,7.78659 7.78659,7.78659 h 125.51269 z"
       id="path2-5"
       inkscape:export-xdpi="27.07"
       inkscape:export-ydpi="27.07" /><path
       inkscape:connector-curvature="0"
       style="fill:#ffffff;stroke-width:0.52862138"
       d="M -339.66504,124.51124 V 69.875037 h 18.33894 l 2.74566,-21.29287 h -21.08513 v -13.59455 c 0,-6.16479 1.71168,-10.36574 10.55235,-10.36574 l 11.27496,-0.005 V 5.572767 c -1.95009,-0.25903 -8.64349,-0.83892 -16.42955,-0.83892 -16.2567,0 -27.38629,9.92275 -27.38629,28.14591 v 15.7027 h -18.38598 v 21.29287 h 18.38598 v 54.635663 h 21.98906 z"
       id="path4-3"
       inkscape:export-xdpi="27.07"
       inkscape:export-ydpi="27.07" /><text
       xml:space="preserve"
       style="font-style:normal;font-weight:normal;font-size:33.95053101px;line-height:1.25;font-family:sans-serif;letter-spacing:0px;word-spacing:0px;fill:#000000;fill-opacity:1;stroke:none;stroke-width:0.79571557"
       x="-337.03079"
       y="266.49951"
       id="text858"><tspan
         sodipodi:role="line"
         id="tspan856"
         x="-337.03079"
         y="266.49951"
         style="stroke-width:0.79571557">LOGODOWNLOAD.ORG</tspan></text>
</g></svg>